<svg xmlns="http://www.w3.org/2000/svg" width="1600" height="900" viewBox="0 0 1600 900">
  <defs>
    <linearGradient id="bg" x1="0" y1="0" x2="1" y2="1"><stop stop-color="#0b1424"/><stop offset="1" stop-color="#111d31"/></linearGradient>
    <linearGradient id="accent" x1="0" y1="0" x2="1" y2="0"><stop stop-color="#22d3ee"/><stop offset="1" stop-color="#3b82f6"/></linearGradient>
    <filter id="shadow" x="-20%" y="-20%" width="140%" height="150%"><feDropShadow dx="0" dy="14" stdDeviation="18" flood-color="#020617" flood-opacity=".4"/></filter>
  </defs>
  <rect width="1600" height="900" rx="30" fill="url(#bg)"/>
  <circle cx="1480" cy="100" r="190" fill="#0891b2" opacity=".08"/>
  <text x="56" y="70" fill="#67e8f9" font-family="Arial, sans-serif" font-size="17" font-weight="700" letter-spacing="4">CLOSEFLOW · LEAD IMPORT</text>
  <text x="56" y="128" fill="#f8fafc" font-family="Arial, sans-serif" font-size="40" font-weight="700">Prepare your lead spreadsheet</text>
  <text x="56" y="166" fill="#94a3b8" font-family="Arial, sans-serif" font-size="19">Use the exact column names below in the first row. Headers are case-insensitive.</text>
  <rect x="56" y="204" width="1488" height="440" rx="18" fill="#111b2b" stroke="#26364b" filter="url(#shadow)"/>
  <rect x="56" y="204" width="1488" height="52" rx="18" fill="#1a2940"/>
  <path d="M56 238h1488v18H56z" fill="#1a2940"/>
  <circle cx="82" cy="230" r="6" fill="#fb7185"/><circle cx="103" cy="230" r="6" fill="#fbbf24"/><circle cx="124" cy="230" r="6" fill="#34d399"/>
  <text x="154" y="236" fill="#cbd5e1" font-family="Arial, sans-serif" font-size="15">leads.xlsx · Sheet 1</text>
  <rect x="72" y="272" width="1456" height="66" rx="8" fill="#123047"/>
  <g fill="#67e8f9" font-family="Arial, sans-serif" font-size="14" font-weight="700">
    <text x="84" y="312">name *</text><text x="214" y="312">company</text><text x="354" y="312">status</text><text x="464" y="312">value</text><text x="554" y="312">source</text><text x="674" y="312">email</text><text x="834" y="312">phone</text><text x="974" y="312">website</text><text x="1124" y="312">address</text><text x="1274" y="312">tags</text><text x="1394" y="312">notes</text>
  </g>
  <g stroke="#26364b" stroke-width="1">
    <path d="M72 338h1456M72 398h1456M72 458h1456M72 518h1456M72 578h1456M72 638h1456"/>
    <path d="M202 272v366M342 272v366M452 272v366M542 272v366M662 272v366M822 272v366M962 272v366M1112 272v366M1262 272v366M1382 272v366"/>
  </g>
  <g fill="#e2e8f0" font-family="Arial, sans-serif" font-size="13">
    <text x="84" y="376">Maya Chen</text><text x="214" y="376">Northstar Labs</text><text x="354" y="376">proposal</text><text x="464" y="376">12500</text><text x="554" y="376">website</text><text x="674" y="376">maya@example.com</text><text x="834" y="376">+1 555 0100</text><text x="974" y="376">northstar.com</text><text x="1124" y="376">Berlin, Germany</text><text x="1274" y="376">saas|enterprise</text><text x="1394" y="376">Interested in team plan</text>
    <text x="84" y="436">Jordan Lee</text><text x="214" y="436">Brightside Co.</text><text x="354" y="436">contacted</text><text x="464" y="436">0</text><text x="554" y="436">recommendation</text><text x="674" y="436">jordan@example.com</text><text x="834" y="436">+1 555 0130</text><text x="974" y="436">brightside.co</text><text x="1124" y="436">London, UK</text><text x="1274" y="436">follow-up|q3</text><text x="1394" y="436">Intro call requested</text>
    <text x="84" y="496">Alex Morgan</text><text x="214" y="496">Acme Studio</text><text x="354" y="496">new</text><text x="464" y="496">(optional)</text><text x="554" y="496">other</text><text x="674" y="496">(optional)</text><text x="834" y="496">(optional)</text><text x="974" y="496">(optional)</text><text x="1124" y="496">(optional)</text><text x="1274" y="496">(optional)</text><text x="1394" y="496">(optional)</text>
    <text x="84" y="556" fill="#64748b">Taylor Reed</text><text x="214" y="556" fill="#64748b">(optional)</text><text x="354" y="556" fill="#64748b">new</text><text x="464" y="556" fill="#64748b">0</text><text x="554" y="556" fill="#64748b">other</text><text x="674" y="556" fill="#64748b">(optional)</text><text x="834" y="556" fill="#64748b">(optional)</text><text x="974" y="556" fill="#64748b">(optional)</text><text x="1124" y="556" fill="#64748b">(optional)</text><text x="1274" y="556" fill="#64748b">(optional)</text><text x="1394" y="556" fill="#64748b">(optional)</text>
  </g>
  <rect x="56" y="676" width="1488" height="166" rx="16" fill="#0c1828" stroke="#203148"/>
  <rect x="56" y="676" width="5" height="166" rx="2" fill="url(#accent)"/>
  <text x="84" y="713" fill="#f8fafc" font-family="Arial, sans-serif" font-size="17" font-weight="700">Required: name</text>
  <text x="84" y="744" fill="#cbd5e1" font-family="Arial, sans-serif" font-size="15">Optional: company, status, value, source, email, phone, website, address, tags, notes</text>
  <text x="84" y="774" fill="#94a3b8" font-family="Arial, sans-serif" font-size="14">Status: new · contacted · proposal · won · lost  |  Value defaults to 0  |  Source defaults to other</text>
  <text x="84" y="802" fill="#94a3b8" font-family="Arial, sans-serif" font-size="14">Separate multiple tags with |  ·  Accepted formats: .xlsx, .xls, .csv  ·  Only the first worksheet is imported</text>
  <text x="84" y="827" fill="#64748b" font-family="Arial, sans-serif" font-size="13">Matching name + company updates the existing lead. New rows are added to your workspace.</text>
</svg>
